<svg xmlns="http://www.w3.org/2000/svg" viewBox="0 0 290.1 64"><path d="M45.4 16.6A19 19 0 1 0 45.4 43.4" stroke="#F7F1E6" stroke-width="10" fill="none" stroke-linecap="round"/><path d="M13 40L6 58L25 47Z" fill="#F7F1E6"/><circle cx="47" cy="30" r="6.5" fill="#C8472B"/><path transform="translate(78.00 53) scale(0.06364 -0.06364)" d="M341 -14Q257 -14 197.0 13.0Q137 40 99.0 88.0Q61 136 43.5 197.5Q26 259 26 328Q26 399 44.0 462.0Q62 525 99.5 572.5Q137 620 196.0 647.0Q255 674 338 674Q410 674 462.0 653.5Q514 633 545.5 597.5Q577 562 589.0 516.0Q601 470 595 420L446 402Q448 445 435.5 476.0Q423 507 397.5 524.0Q372 541 333 541Q300 541 274.5 528.0Q249 515 231.5 489.0Q214 463 205.0 424.5Q196 386 196 335Q196 269 212.0 220.5Q228 172 261.0 145.5Q294 119 344 119Q390 119 416.5 140.0Q443 161 454.0 198.0Q465 235 461 281L614 268Q619 213 606.5 162.5Q594 112 561.5 72.0Q529 32 474.5 9.0Q420 -14 341 -14Z" fill="#F7F1E6"/><path transform="translate(116.88 53) scale(0.06364 -0.06364)" d="M282 -14Q206 -14 147.0 16.5Q88 47 55.0 108.5Q22 170 22 263Q22 360 56.5 421.5Q91 483 150.5 512.5Q210 542 285 542Q363 542 421.5 511.5Q480 481 512.5 419.5Q545 358 545 264Q545 167 510.5 105.5Q476 44 416.5 15.0Q357 -14 282 -14ZM286 105Q317 105 338.0 122.5Q359 140 370.0 174.0Q381 208 381 255Q381 307 369.0 342.5Q357 378 334.5 397.0Q312 416 280 416Q250 416 229.0 398.5Q208 381 197.0 347.0Q186 313 186 265Q186 189 212.5 147.0Q239 105 286 105Z" fill="#F7F1E6"/><path transform="translate(151.69 53) scale(0.06364 -0.06364)" d="M36 0V299V528H173V313H181Q187 391 207.0 441.5Q227 492 264.0 517.0Q301 542 358 542Q444 542 487.5 485.0Q531 428 531 315V0H369V294Q369 348 352.5 375.0Q336 402 300 402Q270 402 247.0 381.0Q224 360 211.0 313.0Q198 266 198 187V0Z" fill="#F7F1E6"/><path transform="translate(186.18 53) scale(0.06364 -0.06364)" d="M247 -12Q154 -12 108.5 35.5Q63 83 63 183V402H5V504H8Q70 512 96.0 545.5Q122 579 128 647V649H223V528H344V398H223V198Q223 160 241.5 144.0Q260 128 287 128Q301 128 316.0 132.0Q331 136 344 143V2Q313 -7 289.0 -9.5Q265 -12 247 -12Z" fill="#F7F1E6"/><path transform="translate(208.33 53) scale(0.06364 -0.06364)" d="M4 0 225 660H435L655 0H480L332 529H326L177 0ZM129 117V231H550V117Z" fill="#C8472B"/><path transform="translate(248.99 53) scale(0.06364 -0.06364)" d="M40 0V660H314Q358 660 397.5 652.5Q437 645 469.5 630.0Q502 615 526.0 592.0Q550 569 563.0 537.5Q576 506 576 466Q576 435 565.5 407.5Q555 380 532.5 358.0Q510 336 474.5 321.5Q439 307 390 301V293Q454 290 489.0 268.0Q524 246 541.5 212.5Q559 179 568 140L603 0H424L399 131Q393 165 380.5 186.0Q368 207 345.0 217.0Q322 227 284 227H202V0ZM202 352H296Q351 352 380.0 373.0Q409 394 409 437Q409 484 382.0 507.0Q355 530 300 530H202Z" fill="#C8472B"/></svg>